<?xml version="1.0" standalone="no"?>
<!DOCTYPE svg PUBLIC "-//W3C//DTD SVG 20010904//EN"
 "http://www.w3.org/TR/2001/REC-SVG-20010904/DTD/svg10.dtd">
<svg version="1.0" xmlns="http://www.w3.org/2000/svg"
 width="1348.000000pt" height="360.000000pt" viewBox="0 0 1348.000000 360.000000"
 preserveAspectRatio="xMidYMid meet">

<g transform="translate(0.000000,360.000000) scale(0.100000,-0.100000)"
fill="#000000" stroke="none">
<path d="M666 3413 c-14 -14 -26 -29 -26 -33 0 -5 16 -46 36 -92 35 -79 37
-90 44 -233 4 -82 12 -162 18 -178 34 -83 57 -120 103 -171 56 -61 177 -145
279 -194 61 -29 67 -35 83 -81 32 -86 80 -116 112 -68 14 22 13 29 -9 88 -29
78 -49 158 -76 304 -25 142 -32 169 -60 235 -73 179 -116 228 -307 346 -184
114 -167 107 -197 77z"/>
<path d="M1680 3124 c-18 -25 -65 -69 -105 -99 -112 -83 -194 -189 -242 -310
-17 -43 -16 -248 1 -288 17 -41 76 -87 113 -87 72 0 206 58 276 120 31 27 59
67 88 127 44 88 44 88 44 198 0 95 -4 120 -27 185 -15 41 -30 95 -34 120 -13
92 -64 107 -114 34z"/>
<path d="M446 2619 c-23 -33 -20 -55 11 -76 36 -25 82 -70 118 -117 37 -47
132 -115 202 -145 145 -60 231 -73 296 -46 20 8 51 15 70 15 44 0 57 15 57 66
0 61 -30 104 -127 185 -139 114 -149 117 -364 123 -101 3 -198 8 -215 11 -26
6 -34 3 -48 -16z"/>
<path d="M12003 2214 c-209 -64 -234 -327 -40 -417 28 -14 101 -37 160 -53
126 -32 157 -51 157 -97 -1 -41 -18 -63 -63 -82 -48 -20 -114 -19 -157 3 -40
20 -80 74 -80 108 0 28 -2 28 -105 13 -84 -13 -85 -13 -60 -95 36 -124 137
-193 292 -201 164 -10 273 36 328 137 65 122 23 269 -97 331 -20 10 -87 33
-149 49 -62 17 -128 38 -146 46 -92 44 -23 121 100 112 52 -4 64 -9 88 -36 16
-18 29 -41 29 -52 0 -23 16 -24 119 -14 57 6 61 9 61 32 0 81 -52 157 -136
198 -46 23 -71 28 -152 30 -69 3 -112 -1 -149 -12z"/>
<path d="M1365 2207 c-3 -6 -4 -190 -3 -407 l3 -395 82 -3 83 -3 2 247 3 247
150 -247 150 -246 88 0 87 0 0 410 0 411 -82 -3 -83 -3 -5 -245 -5 -245 -150
247 -150 248 -83 0 c-57 0 -84 -4 -87 -13z"/>
<path d="M2318 1818 c-86 -222 -154 -406 -152 -410 3 -5 45 -8 93 -8 l89 0 32
90 32 90 153 0 153 0 33 -90 33 -90 93 0 c68 0 93 3 93 13 1 6 -70 191 -157
409 l-158 398 -91 0 -90 0 -156 -402z m295 37 l45 -120 -90 -3 c-50 -1 -92 -1
-94 1 -3 2 11 46 30 98 50 137 56 152 61 148 2 -2 24 -58 48 -124z"/>
<path d="M2974 2207 c-3 -8 -4 -41 -2 -73 l3 -59 118 -3 117 -3 0 -334 0 -335
90 0 90 0 0 335 0 334 118 3 117 3 0 70 0 70 -323 3 c-266 2 -323 0 -328 -11z"/>
<path d="M3792 1908 c3 -292 5 -316 24 -358 23 -50 71 -103 113 -124 73 -38
227 -47 325 -19 45 13 72 28 107 62 74 73 79 99 79 453 l0 299 -87 -3 -88 -3
-5 -300 c-4 -224 -8 -306 -18 -323 -28 -48 -132 -67 -197 -36 -69 32 -70 36
-73 367 l-3 297 -90 0 -91 0 4 -312z"/>
<path d="M4665 2208 c-3 -7 -4 -191 -3 -408 l3 -395 88 -3 87 -3 0 167 0 166
55 -4 c71 -6 89 -23 202 -194 l88 -134 103 0 c76 0 102 3 102 13 0 24 -177
283 -215 315 -28 22 -34 32 -22 32 56 0 148 81 166 147 34 123 -13 237 -119
287 -41 19 -65 21 -288 24 -194 3 -243 1 -247 -10z m456 -167 c21 -25 26 -90
9 -121 -15 -29 -65 -40 -181 -40 l-109 0 0 96 0 96 131 -4 c123 -3 132 -4 150
-27z"/>
<path d="M5618 1818 c-86 -222 -154 -406 -152 -410 3 -5 45 -8 93 -8 l89 0 32
90 32 90 153 0 153 0 33 -90 33 -90 93 0 c68 0 93 3 93 13 1 6 -70 191 -157
409 l-158 398 -91 0 -90 0 -156 -402z m295 37 l45 -120 -90 -3 c-50 -1 -92 -1
-94 1 -3 2 11 46 30 98 50 137 56 152 61 148 2 -2 24 -58 48 -124z"/>
<path d="M6425 2208 c-3 -7 -4 -191 -3 -408 l3 -395 288 -3 287 -2 0 75 0 75
-195 0 -195 0 -2 333 -3 332 -88 3 c-64 2 -89 -1 -92 -10z"/>
<path d="M7175 2208 c-3 -7 -4 -191 -3 -408 l3 -395 288 -3 287 -2 0 75 0 75
-195 0 -195 0 -2 333 -3 332 -88 3 c-64 2 -89 -1 -92 -10z"/>
<path d="M7754 2204 c4 -10 70 -117 146 -239 l140 -222 0 -171 0 -172 90 0 90
0 0 172 0 171 141 224 c77 123 143 231 146 239 5 12 -10 14 -97 12 l-102 -3
-84 -145 c-46 -80 -87 -144 -91 -144 -4 1 -46 66 -93 145 l-86 144 -103 3
c-94 2 -103 1 -97 -14z"/>
<path d="M9015 2207 c-3 -6 -4 -190 -3 -407 l3 -395 310 0 310 0 0 70 0 70
-222 3 -223 2 0 105 0 105 200 0 200 0 0 75 0 75 -200 0 -200 0 0 80 0 80 215
0 215 0 0 75 0 75 -300 0 c-232 0 -302 -3 -305 -13z"/>
<path d="M9820 1810 l0 -412 218 4 c201 3 221 5 267 26 147 68 224 246 197
458 -15 115 -51 192 -117 252 -76 70 -97 74 -347 79 l-218 5 0 -412z m382 250
c53 -15 94 -67 108 -137 18 -85 8 -238 -19 -291 -33 -65 -58 -76 -183 -81
l-108 -3 0 261 0 261 83 0 c45 0 99 -5 119 -10z"/>
<path d="M10700 1810 l0 -411 88 3 87 3 0 405 0 405 -87 3 -88 3 0 -411z"/>
<path d="M11024 2207 c-3 -8 -4 -41 -2 -73 l3 -59 118 -3 117 -3 0 -334 0
-335 90 0 90 0 0 335 0 334 118 3 117 3 0 70 0 70 -323 3 c-266 2 -323 0 -328
-11z"/>
<path d="M12655 1395 c-16 -8 -46 -14 -65 -15 -47 0 -60 -15 -60 -66 0 -61 30
-104 127 -185 139 -114 149 -117 364 -123 101 -3 198 -8 215 -11 26 -6 34 -3
48 16 23 33 20 55 -11 76 -36 25 -82 70 -118 117 -101 130 -391 241 -500 191z"/>
<path d="M12200 1275 c-139 -44 -221 -111 -281 -232 -44 -88 -44 -88 -44 -198
0 -95 4 -120 27 -185 15 -41 30 -95 34 -120 13 -92 64 -107 114 -34 18 25 65
69 105 99 87 65 153 138 197 219 52 96 56 114 57 234 1 130 -9 165 -62 205
-40 30 -77 33 -147 12z"/>
<path d="M12415 1267 c-14 -22 -13 -29 9 -88 29 -78 49 -158 76 -304 25 -142
32 -169 60 -235 73 -179 116 -228 307 -346 184 -114 167 -107 197 -77 14 14
26 29 26 33 0 5 -16 46 -36 92 -35 79 -37 90 -44 233 -4 83 -12 162 -18 178
-34 83 -57 120 -103 171 -56 61 -177 145 -279 194 -61 29 -67 35 -83 81 -32
86 -80 116 -112 68z"/>
</g>
</svg>
